<svg width="1434" height="1024" viewBox="0 0 1434 1024" fill="none" xmlns="http://www.w3.org/2000/svg">
<path d="M99.2499 0C132 25.8586 115.625 62.0605 1 77.5757" stroke="#F1DED0" stroke-opacity="0.29" stroke-width="0.5" stroke-linecap="round"/>
<path d="M230.25 0C290.291 38.7878 328.5 125.673 1 162.909" stroke="#F1DED0" stroke-opacity="0.29" stroke-width="0.5" stroke-linecap="round"/>
<path d="M557.75 0C530.458 67.2323 384.175 203.248 17.3751 209.454" stroke="#F1DED0" stroke-opacity="0.29" stroke-width="0.5" stroke-linecap="round"/>
<path d="M803.374 0C759.708 72.404 541.375 228.072 17.3751 271.515" stroke="#F1DED0" stroke-opacity="0.29" stroke-width="0.5" stroke-linecap="round"/>
<path d="M1743.12 0C1579.37 87.9191 1228.95 263.757 1137.25 263.757C1045.55 263.757 771.542 413.737 646 488.727" stroke="#F1DED0" stroke-opacity="0.29" stroke-width="0.5" stroke-linecap="round"/>
<path d="M2070.62 0C1251.88 235.313 -51.5739 769.551 1284.63 1024" stroke="#F1DED0" stroke-opacity="0.29" stroke-width="0.5" stroke-linecap="round"/>
<path d="M1 915.392C28.2916 949.008 112.35 1017.79 230.25 1024" stroke="#F1DED0" stroke-opacity="0.29" stroke-width="0.5" stroke-linecap="round"/>
<path d="M2087 93.0914C1399.25 307.717 433.126 681.115 2070.63 457.697" stroke="#F1DED0" stroke-opacity="0.29" stroke-width="0.5" stroke-linecap="round"/>
<path d="M1425.62 511.999C765.166 548.201 -15.3746 713.696 852.499 1024" stroke="#F1DED0" stroke-opacity="0.29" stroke-width="0.5" stroke-linecap="round"/>
<path d="M1442 605.091C1016.25 628.363 213.875 651.636 950.75 1016.24" stroke="#F1DED0" stroke-opacity="0.29" stroke-width="0.5" stroke-linecap="round"/>
<path d="M1425.62 698.182C1109.04 705.94 492.249 659.394 1049 1024" stroke="#F1DED0" stroke-opacity="0.29" stroke-width="0.5" stroke-linecap="round"/>
<path d="M1425.62 767.999C1218.21 786.1 786.999 705.939 1163.62 1024" stroke="#F1DED0" stroke-opacity="0.29" stroke-width="0.5" stroke-linecap="round"/>
<path d="M1442 847.196C1303.22 861.228 1043 754.585 1268.52 1024" stroke="#F1DED0" stroke-opacity="0.29" stroke-width="0.5" stroke-linecap="round"/>
<path d="M1392.87 1024H1425.62" stroke="#F1DED0" stroke-opacity="0.29" stroke-width="0.5" stroke-linecap="round"/>
</svg>
