<svg width="1307" height="6735" viewBox="0 0 1307 6735" fill="none" xmlns="http://www.w3.org/2000/svg">
<path d="M99.2499 1C132 174.257 115.625 416.818 1 520.772" stroke="#F1DED0" stroke-opacity="0.29" stroke-width="0.5" stroke-linecap="round"/>
<path d="M230.25 1C290.291 260.886 328.5 843.031 1 1092.52" stroke="#F1DED0" stroke-opacity="0.29" stroke-width="0.5" stroke-linecap="round"/>
<path d="M557.75 1C530.458 451.469 384.175 1362.8 17.3751 1404.39" stroke="#F1DED0" stroke-opacity="0.29" stroke-width="0.5" stroke-linecap="round"/>
<path d="M803.374 1C759.708 486.121 541.375 1529.13 17.3751 1820.2" stroke="#F1DED0" stroke-opacity="0.29" stroke-width="0.5" stroke-linecap="round"/>
<path d="M1098.12 1C934.374 590.075 583.95 1768.23 492.25 1768.23C400.55 1768.23 126.542 2773.12 1 3275.56" stroke="#F1DED0" stroke-opacity="0.29" stroke-width="0.5" stroke-linecap="round"/>
<path d="M1425.62 1C606.875 1577.64 -696.574 5157.14 639.625 6861.99" stroke="#F1DED0" stroke-opacity="0.29" stroke-width="0.5" stroke-linecap="round"/>
<path d="M1 6134.31C28.2916 6359.54 112.35 6820.41 230.25 6861.99" stroke="#F1DED0" stroke-opacity="0.29" stroke-width="0.5" stroke-linecap="round"/>
<path d="M1442 624.73C754.251 2062.77 -211.874 4564.6 1425.63 3067.66" stroke="#F1DED0" stroke-opacity="0.29" stroke-width="0.5" stroke-linecap="round"/>
<path d="M1425.63 1144.51C1038.08 1958.82 344.875 3847.32 1425.63 2651.85" stroke="#F1DED0" stroke-opacity="0.29" stroke-width="0.5" stroke-linecap="round"/>
<path d="M1425.62 3431.5C765.166 3674.06 -15.3746 4782.9 852.499 6861.99" stroke="#F1DED0" stroke-opacity="0.29" stroke-width="0.5" stroke-linecap="round"/>
<path d="M1442 4055.23C1016.25 4211.16 213.875 4367.09 950.75 6810.02" stroke="#F1DED0" stroke-opacity="0.29" stroke-width="0.5" stroke-linecap="round"/>
<path d="M1425.62 4678.96C1109.04 4730.93 492.249 4419.07 1049 6862" stroke="#F1DED0" stroke-opacity="0.29" stroke-width="0.5" stroke-linecap="round"/>
<path d="M1425.62 5146.74C1218.21 5268.02 786.999 4730.93 1163.62 6861.99" stroke="#F1DED0" stroke-opacity="0.29" stroke-width="0.5" stroke-linecap="round"/>
<path d="M1442 5677.38C1303.22 5771.4 1043 5056.87 1268.52 6861.99" stroke="#F1DED0" stroke-opacity="0.29" stroke-width="0.5" stroke-linecap="round"/>
</svg>
